<svg width="512" height="512" viewBox="0 0 512 512" fill="none" xmlns="http://www.w3.org/2000/svg">
<g clip-path="url(#clip0_2_54)">
<circle cx="256" cy="256" r="256" fill="white"/>
<path fill-rule="evenodd" clip-rule="evenodd" d="M511.721 268.051C511.907 264.057 512 260.04 512 256C512 114.761 397.622 0.237017 256.438 0.000349189C256.26 0.000158803 256.081 4.24076e-05 255.902 0C235.786 0.00752103 216.212 2.33528 197.434 6.73018C198.524 8.32358 201.281 11.143 206.242 16.1819C216.964 27.0734 224.985 39.5517 231.521 53.2169C238.932 68.7209 240.829 96.5329 235.765 115.452C233.08 125.483 232.457 126.002 225.566 123.946C200.607 117.086 183.307 76.337 173.824 53.9981C171.564 48.6767 169.749 44.3999 168.379 41.8749C168.037 41.2452 167.665 40.5533 167.267 39.813C164.218 34.1386 159.641 25.622 155.425 20.5123C150.567 22.5901 145.785 24.8139 141.087 27.1781C142.127 29.1325 143.746 31.3822 146.056 33.9539C149.083 37.3248 151.747 40.9594 154.415 44.6002C155.605 46.2245 156.796 47.85 158.021 49.4539C168.097 62.6486 176.825 76.7731 185.554 90.8997C191.782 100.98 198.011 111.061 204.732 120.806C208.74 126.617 210.943 129.428 210.282 131.122C209.513 133.093 204.862 133.551 194.662 135.466C178.5 138.5 161.905 135.106 153.534 131.906C124.5 120.806 108.927 111.5 93.9608 78.4539C89 67.5 88 64.2537 86.3802 64.2537C33.3997 111.156 0 179.677 0 256C0 269.271 1.00979 282.306 2.95672 295.032C5.5 279.5 6.50986 274 9.98377 260.082C18.8621 224.511 43.1355 189.056 72.4718 167.719C87.3826 156.865 103.157 149.237 121.246 145.055C127.824 143.535 153.988 143.638 159.066 145.204C169.609 148.457 162.298 194.821 158.045 205.454C151.005 223.053 143.44 238.739 131.539 253.454C121.984 265.265 111.414 276.193 100.852 287.112C84.2469 304.28 67.6613 321.427 55.0718 341.954C49.6578 350.777 41.1608 376.292 39.3028 389.305C39.173 390.213 39.1278 391.16 39.163 392.143C66.0407 434.862 105.193 469.079 151.671 489.846C144.5 480.5 141.5 474 139.864 464.454C135.844 441 139.152 418.954 143.165 418.954C149.012 418.954 155 435 166 439.5C158.37 432.674 143.829 414.119 149.86 402.19C176.15 350.207 270.129 355.685 319.482 366.458C358.802 375.044 403.65 398.741 408.624 442.522C409.292 448.403 407.385 458.964 405.661 458.932C405.013 458.92 402.51 458.015 400.101 456.922C368.045 442.378 327.113 445.067 289.082 447.565C275.131 448.482 261.571 449.373 248.982 449.378C220.946 449.389 195.445 449.815 169 441C200.444 458.687 236.945 459.557 272.219 460.869C296.05 461.756 319.868 462.643 342.982 467.834C349.969 469.403 356.726 471.627 363.474 473.848C369.27 475.755 375.06 477.661 380.982 479.147C381.115 479.18 381.249 479.213 381.382 479.245C448.524 441.455 496.899 374.252 509.031 295.111C510.276 285.758 511.173 276.677 511.721 268.051ZM338.948 249.454C344.865 204.49 350.987 153.65 338.958 109.454C332.997 87.5623 305 49.4539 288.608 48.9539C284.481 48.9539 265.088 69.4119 258.275 80.9539C226.515 134.767 225.867 207.007 245.394 265.454C253.447 289.563 267.713 314.305 281.977 328.901C293.667 340.861 310.722 352.636 327.982 354.225C328.603 354.282 329.07 354.324 329.431 354.15C330.525 353.62 330.654 351.1 331.175 340.954C332.744 310.42 334.96 279.78 338.948 249.454ZM396.553 79.9539C381.979 64.3859 365.926 55.4769 343.982 50.7799C330.212 47.8329 323.29 48.5519 326.982 52.5479C329.257 55.376 331.553 57.7939 333.875 60.2398C341.779 68.5633 349.991 77.2115 358.749 103.454C370.284 138.019 364.218 212.5 356.641 255.696C351.664 280 348.453 350.825 351.664 354.036C352.65 355.022 360.245 353.139 364.218 350.922C433.771 312.176 453.815 236.489 436 158.954C429.535 130.784 416.503 101.264 396.553 79.9539ZM218.042 262.454C224.241 224.228 209.904 184.875 183.035 157.852C176.731 151.512 173.573 147.898 171.989 148.49C170.154 149.177 170.431 155.51 170.379 169.797C170.316 186.869 169.911 193.933 168.735 198.454C168.158 200.671 167.607 202.886 167.057 205.096C164.606 214.939 162.184 224.667 157.709 233.954C145.445 259.406 129.5 280 108.982 303.263C108.607 303.688 108.231 304.114 107.854 304.54C94.7518 319.377 81.0826 334.856 73.8638 364.672C71 376.5 69.5678 412.239 72.6908 417.291C73.3508 418.36 87.5788 417.366 93.4818 415.838C165.436 397.231 206.795 331.847 218.042 262.454Z" fill="#00643C"/>
</g>
<defs>
<clipPath id="clip0_2_54">
<rect width="512" height="512" fill="white"/>
</clipPath>
</defs>
</svg>
